HIERARCHY
ROOT pelvis
{
	OFFSET 0.000000 0.000000 0.882079
	CHANNELS 6 Xposition Yposition Zposition Xrotation Yrotation Zrotation
	JOINT spine
	{
		OFFSET 0.000000 0.000000 0.000000
		CHANNELS 6 Xposition Yposition Zposition Xrotation Yrotation Zrotation
		JOINT spine.001
		{
			OFFSET 0.000000 -0.015905 0.303483
			CHANNELS 3 Xrotation Yrotation Zrotation
			JOINT neck
			{
				OFFSET 0.000000 0.037036 0.301635
				CHANNELS 6 Xposition Yposition Zposition Xrotation Yrotation Zrotation
				JOINT face
				{
					OFFSET 0.000000 0.003871 0.221748
					CHANNELS 6 Xposition Yposition Zposition Xrotation Yrotation Zrotation
					End Site
					{
						OFFSET 0.000000 -0.029348 -0.009041
					}
				}
			}
			JOINT shoulder.L
			{
				OFFSET 0.000000 0.037036 0.301635
				CHANNELS 6 Xposition Yposition Zposition Yrotation Xrotation Zrotation
				JOINT upper_arm.L
				{
					OFFSET 0.183720 0.000000 0.000000
					CHANNELS 6 Xposition Yposition Zposition Xrotation Yrotation Zrotation
					JOINT forearm.L
					{
						OFFSET 0.305529 0.000134 0.001107
						CHANNELS 6 Xposition Yposition Zposition Xrotation Yrotation Zrotation
						End Site
						{
							OFFSET 0.264376 -0.004492 -0.001524
						}
					}
				}
			}
			JOINT shoulder.R
			{
				OFFSET 0.000000 0.037036 0.301635
				CHANNELS 6 Xposition Yposition Zposition Yrotation Xrotation Zrotation
				JOINT upper_arm.R
				{
					OFFSET -0.183720 0.000000 0.000000
					CHANNELS 6 Xposition Yposition Zposition Xrotation Yrotation Zrotation
					JOINT forearm.R
					{
						OFFSET -0.304723 0.000134 0.001107
						CHANNELS 6 Xposition Yposition Zposition Xrotation Yrotation Zrotation
						End Site
						{
							OFFSET -0.258955 -0.004398 -0.001524
						}
					}
				}
			}
		}
	}
	JOINT pelvis.L
	{
		OFFSET 0.000000 0.000000 0.000000
		CHANNELS 6 Xposition Yposition Zposition Yrotation Xrotation Zrotation
		End Site
		{
			OFFSET 0.116517 0.000000 0.000000
		}
	}
	JOINT pelvis.R
	{
		OFFSET 0.000000 0.000000 0.000000
		CHANNELS 6 Xposition Yposition Zposition Yrotation Xrotation Zrotation
		End Site
		{
			OFFSET -0.116517 0.000000 0.000000
		}
	}
	JOINT thigh.L
	{
		OFFSET 0.116517 0.000000 0.000000
		CHANNELS 6 Xposition Yposition Zposition Xrotation Yrotation Zrotation
		JOINT shin.L
		{
			OFFSET 0.021507 0.000000 -0.410370
			CHANNELS 6 Xposition Yposition Zposition Xrotation Yrotation Zrotation
			JOINT foot.L
			{
				OFFSET 0.019741 0.000000 -0.376673
				CHANNELS 3 Xrotation Yrotation Zrotation
				End Site
				{
					OFFSET 0.019080 -0.194546 -0.081693
				}
			}
			JOINT heel.02.L
			{
				OFFSET 0.019741 0.000000 -0.376673
				CHANNELS 3 Xrotation Yrotation Zrotation
				End Site
				{
					OFFSET 0.101978 0.039825 -0.088740
				}
			}
		}
	}
	JOINT thigh.R
	{
		OFFSET -0.116517 0.000000 0.000000
		CHANNELS 6 Xposition Yposition Zposition Xrotation Yrotation Zrotation
		JOINT shin.R
		{
			OFFSET -0.022070 0.000000 -0.421124
			CHANNELS 6 Xposition Yposition Zposition Xrotation Yrotation Zrotation
			JOINT foot.R
			{
				OFFSET -0.020130 0.000000 -0.384108
				CHANNELS 3 Xrotation Yrotation Zrotation
				End Site
				{
					OFFSET -0.020033 -0.204259 -0.085772
				}
			}
			JOINT heel.02.R
			{
				OFFSET -0.020130 0.000000 -0.384108
				CHANNELS 3 Xrotation Yrotation Zrotation
				End Site
				{
					OFFSET -0.095682 0.039825 -0.070830
				}
			}
		}
	}
}
MOTION
Frames: 10
Frame Time: 0.041667
0.027895 -0.023115 0.863173 -0.000000 0.000000 3.833819 0.000000 0.000000 0.000000 -6.763062 -0.020204 -0.002260 9.999349 0.097711 0.795901 -0.000000 0.037036 0.301635 14.135060 -3.394136 -5.787424 -0.000000 0.003871 0.221748 3.943457 -0.000000 -0.000001 -0.000000 0.037036 0.301635 0.908178 0.000885 -0.111625 0.183720 0.000000 0.000000 21.008859 72.300544 -28.469422 0.305529 0.000134 0.001107 1.972614 7.759443 -28.885287 0.000000 0.037036 0.301635 0.961939 0.000993 -0.118180 -0.183720 -0.000000 -0.000000 -2.687190 -74.115093 -3.500783 -0.304723 0.000134 0.001107 2.625607 -14.850966 18.817549 0.000000 0.000000 -0.000000 0.396096 0.000000 0.000096 0.000000 0.000000 -0.000000 0.396096 0.000000 -0.000001 0.116514 0.000000 -0.000806 6.163010 1.235554 0.256928 0.021507 -0.000000 -0.410370 0.348913 1.467000 0.013828 -7.046422 -2.166694 2.935104 -9.861980 47.335468 32.959467 -0.116514 -0.000000 0.000805 7.354428 0.969935 -0.448095 -0.022070 -0.000000 -0.421124 1.944445 0.064630 -0.103007 -13.108013 3.776780 -4.281394 -24.522561 -51.937021 -42.780641 
0.026941 -0.023438 0.862638 0.000000 0.000000 3.203864 -0.000000 0.000000 0.000000 -6.757016 -0.011816 -0.001321 10.000013 -0.022103 -0.180015 0.000000 0.037036 0.301635 13.697245 -3.101956 -4.522772 -0.000000 0.003871 0.221748 4.157838 -0.000000 0.000000 0.000000 0.037036 0.301635 1.196624 0.001535 -0.146914 0.183720 0.000000 0.000000 21.489155 72.072675 -29.222182 0.305529 0.000134 0.001107 1.914574 7.417603 -29.461608 -0.000000 0.037036 0.301635 1.250345 0.001675 -0.153504 -0.183720 -0.000000 0.000000 -0.823528 -74.334595 -1.034024 -0.304723 0.000134 0.001107 2.517229 -14.744374 18.123663 -0.000000 0.000000 0.000000 0.569557 -0.000000 0.000002 -0.000000 0.000000 0.000000 0.569557 -0.000000 0.000000 0.116511 -0.000000 -0.001158 6.375652 1.199390 0.267823 0.021507 -0.000000 -0.410370 0.189280 1.536524 0.007386 -7.094086 -2.426350 3.443087 -10.171393 47.578148 33.109284 -0.116511 -0.000000 0.001158 7.105976 0.990227 -0.434173 -0.022070 0.000000 -0.421124 2.244876 0.087817 -0.119380 -13.223775 3.510978 -3.781574 -23.893520 -51.590803 -42.271054 
0.025718 -0.023854 0.861930 -0.000000 0.000000 2.485883 -0.000000 0.000000 0.000000 -6.777878 0.015388 0.001723 9.999328 -0.094955 -0.773359 0.000000 0.037036 0.301635 13.451337 -2.862651 -3.533423 -0.000000 0.003871 0.221748 4.107402 0.000000 0.000001 -0.000000 0.037036 0.301635 1.272214 0.001733 -0.156188 0.183720 0.000000 0.000000 21.882598 72.040000 -29.762324 0.305529 0.000134 0.001107 1.858045 7.147716 -29.783416 -0.000000 0.037036 0.301635 1.325969 0.001884 -0.162843 -0.183720 0.000000 -0.000000 0.906235 -74.300833 1.243638 -0.304723 0.000134 0.001107 2.428879 -14.603337 17.624089 0.000000 0.000000 -0.000000 0.687624 -0.000000 0.000049 0.000000 0.000000 -0.000000 0.687653 -0.000000 0.000000 0.116509 0.000000 -0.001398 6.661179 1.111891 0.284927 0.021507 -0.000000 -0.410370 -0.085846 1.675165 -0.003246 -7.254630 -2.744684 4.033396 -10.469358 47.834427 33.308626 -0.116509 -0.000000 0.001398 6.879605 0.989226 -0.420248 -0.022070 0.000000 -0.421124 2.476559 0.181727 -0.133727 -13.351375 3.185669 -3.175954 -22.982123 -51.089409 -41.629091 
0.024480 -0.024368 0.861547 -0.000000 -0.000000 1.740341 0.000000 0.000000 0.000000 -6.800707 0.049837 0.005591 9.998797 -0.128348 -1.045352 0.000000 0.037036 0.301635 13.289962 -2.689108 -2.656344 0.000000 0.003871 0.221748 3.954982 0.000000 -0.000001 -0.000000 0.037036 0.301635 1.195041 0.001530 -0.146690 0.183720 0.000000 -0.000000 22.096401 72.208767 -29.958706 0.305529 0.000134 0.001107 1.796567 6.908111 -29.900331 0.000000 0.037036 0.301635 1.248834 0.001673 -0.153343 -0.183720 0.000000 0.000000 2.221201 -74.121657 2.984799 -0.304723 0.000134 0.001107 2.355476 -14.395349 17.326325 0.000000 0.000000 0.000000 0.693399 -0.000000 -0.000009 0.000000 0.000000 0.000000 0.693399 -0.000000 -0.000000 0.116509 0.000000 -0.001410 6.993210 1.041358 0.303466 0.021507 0.000000 -0.410370 -0.454434 1.789917 -0.016731 -7.427990 -3.079185 4.646883 -10.727452 48.060831 33.497338 -0.116509 -0.000000 0.001410 6.680657 0.987502 -0.407967 -0.022070 0.000000 -0.421124 2.657755 0.297566 -0.146195 -13.486414 2.837573 -2.530919 -21.875841 -50.463975 -40.891383 
0.023558 -0.024860 0.861681 -0.000000 0.000000 1.167865 -0.000000 0.000000 0.000000 -6.808440 0.071546 0.008031 9.998583 -0.143426 -1.168120 0.000000 0.037036 0.301635 13.115386 -2.567713 -1.827395 0.000000 0.003871 0.221748 3.839899 0.000000 -0.000001 -0.000000 0.037036 0.301635 1.080339 0.001251 -0.132622 0.183720 0.000000 0.000000 22.291058 72.460206 -30.085296 0.305529 0.000134 0.001107 1.722181 6.675938 -29.761450 -0.000000 0.037036 0.301635 1.134059 0.001379 -0.139241 -0.183720 -0.000000 0.000000 2.429584 -74.000059 3.267107 -0.304723 0.000134 0.001107 2.336486 -14.159094 17.505259 -0.000000 -0.000000 0.000000 0.603763 0.000000 0.000018 -0.000000 -0.000000 0.000000 0.603734 -0.000000 -0.000000 0.116511 0.000000 -0.001228 7.265122 1.018001 0.316777 0.021507 0.000000 -0.410370 -0.778905 1.834881 -0.028372 -7.499539 -3.319236 5.100501 -10.883033 48.181773 33.579761 -0.116511 -0.000000 0.001228 6.523056 0.985985 -0.398237 -0.022070 -0.000000 -0.421124 2.819745 0.387712 -0.157321 -13.581368 2.583003 -2.061787 -20.907766 -49.889040 -40.219173 
0.023077 -0.025191 0.862008 -0.000000 0.000000 0.874308 0.000000 0.000000 0.000000 -6.803755 0.070317 0.007890 9.998258 -0.155233 -1.264300 0.000000 0.037036 0.301635 12.953978 -2.472931 -1.191634 -0.000000 0.003871 0.221748 3.771682 -0.000000 0.000000 -0.000000 0.037036 0.301635 1.010744 0.001096 -0.124178 0.183720 0.000000 0.000000 22.724640 72.658507 -30.552232 0.305529 0.000134 0.001107 1.631610 6.437180 -29.348315 -0.000000 0.037036 0.301635 1.064538 0.001215 -0.130802 -0.183720 -0.000000 -0.000000 1.616722 -74.040043 2.189358 -0.304723 0.000134 0.001107 2.359765 -13.892747 18.088264 0.000000 0.000000 0.000000 0.495312 -0.000000 0.000015 0.000000 0.000000 0.000000 0.495341 -0.000000 0.000000 0.116513 0.000000 -0.001007 7.409238 1.017559 0.323107 0.021507 0.000000 -0.410370 -0.958274 1.842400 -0.034843 -7.493970 -3.421359 5.304475 -10.911274 48.179413 33.541133 -0.116513 -0.000000 0.001007 6.400000 0.975650 -0.390132 -0.022070 0.000000 -0.421124 2.993428 0.451118 -0.168667 -13.603589 2.478339 -1.873190 -20.322707 -49.514555 -39.735551 
0.022898 -0.025413 0.862171 -0.000000 0.000000 0.755789 0.000000 0.000000 0.000000 -6.796880 0.052311 0.005866 9.998087 -0.166032 -1.352285 0.000000 0.037036 0.301635 12.860244 -2.379690 -0.832434 0.000000 0.003871 0.221748 3.722772 -0.000000 -0.000002 -0.000000 0.037036 0.301635 1.001954 0.001074 -0.123047 0.183720 0.000000 0.000000 23.213644 72.784852 -31.126497 0.305529 0.000134 0.001107 1.560211 6.270616 -28.882947 -0.000000 0.037036 0.301635 1.055747 0.001195 -0.129684 -0.183720 -0.000000 -0.000000 0.751248 -74.171019 1.041808 -0.304723 0.000134 0.001107 2.373405 -13.650209 18.574670 0.000000 0.000000 0.000000 0.429480 -0.000000 0.000020 0.000000 0.000000 0.000000 0.429510 -0.000000 -0.000000 0.116514 0.000000 -0.000873 7.470744 1.013637 0.326052 0.021507 0.000000 -0.410370 -1.025635 1.851976 -0.037207 -7.534281 -3.460008 5.367941 -10.878919 48.125243 33.459919 -0.116514 -0.000000 0.000873 6.285138 0.968819 -0.382742 -0.022070 0.000000 -0.421124 3.195809 0.495297 -0.181305 -13.598254 2.459845 -1.842016 -20.069386 -49.323586 -39.405130 
0.022787 -0.025808 0.862132 0.000000 0.000000 0.658426 -0.000000 0.000000 0.000000 -6.802844 0.035425 0.003974 9.997892 -0.170032 -1.384875 -0.000000 0.037036 0.301635 12.829994 -2.298184 -0.668001 0.000000 0.003871 0.221748 3.698678 -0.000000 0.000000 -0.000000 0.037036 0.301635 1.022207 0.001121 -0.125612 0.183720 0.000000 0.000000 23.358000 72.893268 -31.257077 0.305529 0.000134 0.001107 1.565039 6.348592 -28.569488 -0.000000 0.037036 0.301635 1.075968 0.001241 -0.132162 -0.183720 -0.000000 -0.000000 0.507733 -74.282002 0.718976 -0.304723 0.000134 0.001107 2.361061 -13.550537 18.625885 -0.000000 0.000000 -0.000000 0.414679 0.000000 0.000021 -0.000000 0.000000 -0.000000 0.414649 -0.000000 -0.000000 0.116514 0.000000 -0.000843 7.542855 0.995416 0.330407 0.021507 0.000000 -0.410370 -1.079011 1.877711 -0.038901 -7.672095 -3.516464 5.434811 -10.876751 48.102178 33.411718 -0.116514 -0.000000 0.000843 6.186060 0.988796 -0.377772 -0.022070 0.000000 -0.421124 3.393613 0.502542 -0.192746 -13.628597 2.443576 -1.806532 -19.954954 -49.213275 -39.148592 
0.022595 -0.026709 0.862008 0.000000 0.000000 0.561498 -0.000000 0.000000 0.000000 -6.852490 0.034313 0.003865 9.998088 -0.164364 -1.338835 0.000000 0.037036 0.301635 12.857042 -2.257063 -0.596015 0.000000 0.003871 0.221748 3.704408 0.000000 0.000000 0.000000 0.037036 0.301635 1.040868 0.001160 -0.127831 0.183720 0.000000 -0.000000 23.107008 72.998111 -30.873200 0.305529 0.000134 0.001107 1.674094 6.810287 -28.268785 0.000000 0.037036 0.301635 1.094625 0.001284 -0.134452 -0.183720 -0.000000 0.000000 0.607335 -74.339540 0.849367 -0.304723 0.000134 0.001107 2.343559 -13.620233 18.367099 -0.000000 0.000000 0.000000 0.435225 -0.000000 -0.000053 -0.000000 0.000000 0.000000 0.435225 -0.000000 -0.000000 0.116514 0.000000 -0.000885 7.665861 0.962829 0.337991 0.021507 -0.000000 -0.410370 -1.162188 1.913229 -0.041539 -7.842826 -3.582609 5.509547 -10.920322 48.125359 33.411175 -0.116514 -0.000000 0.000885 6.163415 1.025165 -0.378338 -0.022070 -0.000000 -0.421124 3.510599 0.461207 -0.198132 -13.666567 2.425817 -1.766715 -19.894227 -49.148166 -38.984148 
0.022349 -0.028283 0.861853 -0.000000 0.000000 0.553171 -0.000000 0.000000 0.000000 -6.976127 0.043104 0.004902 9.998295 -0.153393 -1.249374 0.000000 0.037036 0.301635 12.984856 -2.240912 -0.601459 -0.000000 0.003871 0.221748 3.727233 -0.000000 -0.000001 0.000000 0.037036 0.301635 1.052930 0.001189 -0.129310 0.183720 -0.000000 -0.000000 22.659752 73.119996 -30.225219 0.305529 0.000134 0.001107 1.865341 7.653133 -27.699055 0.000000 0.037036 0.301635 1.106725 0.001313 -0.135899 -0.183720 0.000000 0.000000 0.632657 -74.371321 0.882230 -0.304723 0.000134 0.001107 2.329485 -13.760669 18.032613 0.000000 0.000000 0.000000 0.476641 -0.000000 -0.000070 0.000000 0.000000 0.000000 0.476641 -0.000000 0.000000 0.116513 0.000000 -0.000969 7.811021 0.935070 0.346302 0.021507 -0.000000 -0.410370 -1.239293 1.928407 -0.044131 -7.982824 -3.601318 5.500806 -10.944578 48.142049 33.419204 -0.116513 -0.000000 0.000969 6.274422 1.037150 -0.385820 -0.022070 -0.000000 -0.421124 3.497688 0.391016 -0.195266 -13.640777 2.456411 -1.826192 -19.929886 -49.160799 -38.962305 
